**ABCDEFGHIJKLMNOPQRSTUVWXYZabcdefghijklmnopqrstuvwxyz**************************
**PARASOLID !"#$%&'()*+,-./:;<=>?@[\]^_`{|}~0123456789**************************
**PART1;
MC=AMD64;
MC_MODEL=Intel64 Family 6 Model 158 Stepping 10, GenuineIntel;
MC_ID=unknown;
OS=Windows_NT;
OS_RELEASE=unknown;
FRU=Parasolid Version 31.0, build 290,  9- 1-2019;
APPL=SOLIDWORKS 2019-2019304;
SITE=;
USER=unknown;
FORMAT=text;
GUISE=transmit;
KEY=R2;
FILE=R2.x_t;
DATE=Mon Apr 12 17:41:48 2021;
**PART2;
SCH=SCH_3100290_31001;
USFLD_SIZE=0;
**PART3;
**END_OF_HEADER*****************************************************************
T51 : TRANSMIT FILE created by modeller version 310029023 SCH_3100290_31001_1300
6215 0 12 34 CCCCCCI4 mesh1006 0 I8 polyline1008 0 CCCCCCCDI5 owner1040 0 CCCCCC
I13 boundary_mesh1006 0 I17 boundary_polyline1008 0 CCCA16 index_map_offset0 0 1
 dA9 index_map82 0 A17 node_id_index_map82 0 A20 schema_embedding_map82 0 A5 chi
ld12 0 A14 lowest_node_id0 0 1 dA16 mesh_offset_data206 0 Z1 1307 2 3 0 0 0 0 0
 0 1e3 1e-8 0 4 0 1 0 1 1 5 6 7 8 0 0 9 10 11 0 0 0 0 0 0 0 81 255 2 2 1287 12 1
 13 0 0 0 0 14 70 11 CI9 list_type0 0 1 uI10 notransmit0 0 1 lCCCDCCDI12 finger_
index0 0 1 dI12 finger_block1012 0 CZ3 0 4 T1 0 0 8 20 1 15 15 13 255 5 94 0 1 0
 16 0 0 17 0 51 255 6 833 0 18 19 0 0 +-.0125 .007 .0055 0 0 1 .005 1 0 0 31 255
 7 788 0 10 20 0 0 +-.0125 .007 .0075 0 0 -1 -1 0 0 .005 29 255 8 737 0 11 21 0
 -.0175 .007 .0055 19 8 CCCCCCCA5 owner12 0 Z9 28 0 1 17 0 22 V0 16 255 10 756 0
 ?23 0 24 7 0 0 1 18 255 11 735 0 25 0 26 8 ?1 17 255 25 0 27 28 29 11 30 24 0 3
1 -18 26 732 0 23 11 32 21 ?1 17 23 0 33 34 35 26 36 10 0 37 +18 32 724 0 38 26
 39 40 ?1 29 21 734 0 26 40 8 -.0175 .007 .0075 29 40 726 0 32 41 21 -.0175 .007
 -.0055 29 41 723 0 39 42 40 -.0175 .007 -.0075 18 39 721 0 43 32 44 41 ?1 29 42
 714 0 44 45 41 -.0125 .002 -.0055 18 44 712 0 46 39 47 42 ?1 29 45 705 0 47 48
 42 -.0125 .002 .0055 18 47 703 0 49 44 50 45 ?1 29 48 702 0 50 51 45 -.0125 .00
2 -.0075 18 50 700 0 52 47 53 48 ?1 29 51 699 0 53 54 48 -.0125 .002 .0075 18 53
 697 0 55 50 56 51 ?1 29 54 293 0 56 57 51 -.0325 .002 .0055 18 56 291 0 58 53 5
9 54 ?1 29 57 132 0 59 60 54 0 .002 -.0015 18 59 130 0 61 56 62 57 ?1 29 60 109
 0 62 63 57 -.008 0 -.0015 18 62 107 0 64 59 65 60 ?1 29 63 70 0 66 67 60 -.0325
 0 -.0075 18 66 61 0 68 69 70 63 ?1 29 67 71 0 70 71 63 918485099360515e-33 0 -.
0075 18 70 62 0 72 66 73 67 ?1 29 71 72 0 73 74 67 0 0 .0075 18 73 63 0 75 70 76
 71 ?1 29 74 73 0 76 77 71 -.0325 0 .0075 18 76 64 0 78 73 79 74 ?1 29 77 24 0 6
5 80 74 918485099360515e-33 .002 -.0075 18 65 22 0 81 62 69 77 ?1 29 80 21 0 69
 82 77 0 .002 .0075 18 69 19 0 83 65 66 80 ?1 29 82 227 0 84 85 80 0 0 -.0015 18
 84 178 0 86 87 88 82 ?1 29 85 228 0 88 89 82 0 0 .0015 18 88 176 0 90 84 91 85
 ?1 29 89 229 0 91 92 85 -.008 0 .0015 18 91 183 0 93 88 94 89 ?1 29 92 230 0 79
 95 89 -.008 .002 -.0015 18 79 182 0 96 76 97 92 ?1 29 95 232 0 97 98 92 0 .002
 .0015 18 97 180 0 99 79 87 95 ?1 29 98 233 0 87 100 95 -.008 .002 .0015 18 87 1
77 0 101 97 84 98 ?1 29 100 452 0 102 103 98 -.0325 .0125 .0075 18 102 372 0 104
 105 106 100 ?1 29 103 453 0 106 107 100 -.0175 .0125 .0075 18 106 377 0 34 102
 108 103 ?1 29 107 456 0 94 109 103 -.0325 .0125 .0055 18 94 371 0 110 91 105 10
7 ?1 29 109 457 0 105 111 107 -.0175 .0125 .0055 18 105 373 0 112 94 102 109 ?1
 29 111 657 0 108 113 109 -.0325 .002 -.0055 18 108 575 0 114 106 115 111 ?1 29
 113 663 0 116 117 111 -.0175 .0125 -.0075 18 116 585 0 118 119 120 113 ?1 29 11
7 664 0 120 121 113 -.0325 .0125 -.0075 18 120 586 0 122 116 0 117 ?1 29 121 667
 0 115 123 117 -.0175 .0125 -.0055 18 115 581 0 124 108 119 121 ?1 29 123 668 0
 119 0 121 -.0325 .0125 -.0055 18 119 582 0 125 115 116 123 ?1 17 125 0 126 114
 124 119 127 128 0 129 +15 255 126 603 0 114 130 131 17 114 0 126 46 125 108 132
 133 0 134 +17 124 0 126 125 38 115 135 136 0 137 +17 127 0 138 139 129 115 125
 128 0 0 -16 128 551 0 ?125 136 133 140 0 0 1 17 129 0 138 127 141 119 142 143 0
 132 -15 138 624 0 141 144 0 17 141 0 138 129 139 120 145 146 0 142 +17 142 0 14
7 148 132 120 129 143 0 0 +16 143 557 0 ?142 149 136 150 0 0 1 17 132 0 147 142
 151 119 114 133 0 0 -15 147 84 0 151 152 0 17 151 0 147 132 153 108 58 154 0 0
 -16 133 544 0 ?114 128 155 156 0 0 1 16 155 722 0 ?118 133 146 157 0 0 1 30 255
 156 654 0 133 158 140 0 +-.0325 0 -.0055 0 -1 0 31 158 655 0 159 160 156 0 +-.0
25 .0125 -.0075 0 0 1 1 0 0 .0025 31 140 653 0 128 156 161 0 +-.025 .0125 -.0055
 0 0 1 -1 0 0 .0075 30 161 652 0 136 140 162 0 +-.0175 0 -.0055 0 1 0 16 136 725
 0 ?124 143 128 161 0 0 1 31 162 649 0 146 161 157 0 +-.025 .0125 -.0075 0 0 1 -
1 0 0 .0075 16 146 568 0 ?141 155 163 162 0 0 1 30 157 648 0 155 162 164 0 +-.01
75 0 -.0075 0 1 0 30 164 644 0 149 157 150 0 +-.0175 .0125 -.0055 0 0 -1 16 149
 571 0 ?139 165 143 164 0 0 1 30 150 643 0 143 164 166 0 +-.0325 .0125 -.0055 0
 0 -1 30 166 639 0 165 150 167 0 +0 .002 -.0055 1 0 0 16 165 547 0 ?46 168 149 1
66 0 0 1 31 167 447 0 169 166 170 0 +-.025 .0125 .0055 0 0 1 1 0 0 .0025 16 169
 350 0 ?171 172 168 167 0 0 1 31 170 446 0 168 167 173 0 +-.025 .0125 .0075 0 0
 1 1 0 0 .0025 16 168 363 0 ?174 169 165 170 0 0 1 30 173 445 0 175 170 176 0 +-
.0325 0 .0055 0 -1 0 16 175 333 0 ?153 177 178 173 0 0 1 30 176 443 0 177 173 17
9 0 +-.0175 0 .0055 0 1 0 16 177 736 0 ?112 180 175 176 0 0 1 31 179 442 0 180 1
76 181 0 +-.025 .0125 .0055 0 0 1 -1 0 0 .0075 16 180 337 0 ?182 183 177 179 0 0
 1 30 181 439 0 172 179 184 0 +-.0175 0 .0075 0 1 0 16 172 733 0 ?34 178 169 181
 0 0 1 31 184 438 0 178 181 185 0 +-.025 .0125 .0075 0 0 1 -1 0 0 .0075 16 178 3
57 0 ?186 175 172 184 0 0 1 30 185 437 0 187 184 188 0 +-.0325 .0125 .0055 0 0 1
 16 187 340 0 ?189 190 183 185 0 0 1 30 188 436 0 183 185 191 0 +-.0175 .0125 .0
055 0 0 1 16 183 345 0 ?192 187 180 188 0 0 1 30 191 430 0 190 188 193 0 +0 .002
 .0055 -1 0 0 16 190 353 0 ?194 195 187 191 0 0 1 31 193 225 0 196 191 197 0 +-.
008 .002 0 0 1 0 0 0 1 .0015 16 196 164 0 ?101 198 199 193 0 0 1 30 197 224 0 19
8 193 200 0 +-.008 .002 .0015 1 0 0 16 198 167 0 ?99 201 196 197 0 0 1 31 200 22
3 0 201 197 202 0 +0 .002 0 0 1 0 0 0 1 .0015 16 201 170 0 ?203 204 198 200 0 0
 1 30 202 222 0 204 200 205 0 +-.008 .002 -.0015 -1 0 0 16 204 173 0 ?96 206 201
 202 0 0 1 31 205 221 0 195 202 207 0 +-.008 0 0 0 1 0 0 0 1 .0015 16 195 148 0
 ?208 209 190 205 0 0 1 30 207 220 0 209 205 210 0 +-.008 0 .0015 1 0 0 16 209 1
52 0 ?211 212 195 207 0 0 1 31 210 219 0 212 207 213 0 +0 0 0 0 1 0 0 0 1 .0015
 16 212 156 0 ?214 199 209 210 0 0 1 30 213 218 0 199 210 215 0 +-.008 0 -.0015
 -1 0 0 16 199 160 0 ?216 196 212 213 0 0 1 30 215 217 0 206 213 217 0 +-.008 .0
02 -.0015 0 -1 0 16 206 151 0 ?218 219 204 215 0 0 1 30 217 216 0 219 215 220 0
 +0 .002 -.0015 0 -1 0 16 219 163 0 ?86 221 206 217 0 0 1 30 220 215 0 221 217 2
22 0 +0 .002 .0015 0 -1 0 16 221 159 0 ?90 223 219 220 0 0 1 30 222 214 0 223 22
0 224 0 +-.008 .002 .0015 0 -1 0 16 223 155 0 ?225 226 221 222 0 0 1 30 224 5 0
 154 222 227 0 +-.0325 .002 .0075 0 0 1 16 154 500 0 ?58 228 229 224 0 0 1 30 22
7 8 0 228 224 230 0 +-.0325 .002 .0075 1 0 0 16 228 698 0 ?83 231 154 227 0 0 1
 31 230 11 0 231 227 232 0 +0 .002 0 0 1 0 0 0 1 .0075 16 231 10 0 ?81 233 228 2
30 0 0 1 30 232 14 0 233 230 234 0 +-.0325 .002 -.0075 -1 0 0 16 233 13 0 ?235 2
36 231 232 0 0 1 30 234 69 0 226 232 237 0 +-.0325 0 .0075 0 0 1 16 226 57 0 ?78
 238 223 234 0 0 1 30 237 68 0 238 234 239 0 +-.0325 0 .0075 1 0 0 16 238 53 0 ?
75 240 226 237 0 0 1 31 239 67 0 240 237 241 0 +0 0 0 0 1 0 0 0 1 .0075 16 240 4
9 0 ?72 229 238 239 0 0 1 30 241 66 0 229 239 242 0 +-.0325 0 -.0075 -1 0 0 16 2
29 45 0 ?68 154 240 241 0 0 1 30 242 86 0 236 241 243 0 +-.0325 .002 -.0075 0 -1
 0 16 236 74 0 ?148 244 233 242 0 0 1 30 243 87 0 244 242 245 0 +918485099360515
e-33 .002 -.0075 0 -1 0 16 244 75 0 ?246 247 236 243 0 0 1 30 245 88 0 247 243 2
48 0 +0 .002 .0075 0 -1 0 16 247 76 0 ?249 250 244 245 0 0 1 30 248 89 0 250 245
 251 0 +-.0325 .002 .0075 0 -1 0 16 250 77 0 ?252 253 247 248 0 0 1 30 251 706 0
 253 248 254 0 --.0125 .002 .0075 0 0 -1 16 253 704 0 ?55 255 250 251 0 0 1 30 2
54 718 0 255 251 256 0 +-.0125 .002 0 0 0 1 16 255 716 0 ?257 258 253 254 0 0 1
 30 256 729 0 258 254 259 0 --.0175 .007 -.0055 0 0 1 16 258 727 0 ?43 260 255 2
56 0 0 1 30 259 740 0 260 256 261 0 +-.0175 .007 .0055 0 0 -1 16 260 738 0 ?31 2
62 258 259 0 0 1 31 261 785 0 262 259 263 0 --.0125 .007 -.0055 0 0 1 1 0 0 .005
 16 262 743 0 ?38 264 260 261 0 0 1 31 263 786 0 264 261 20 0 +-.0125 .007 -.007
5 0 0 1 1 0 0 .005 16 264 747 0 ?52 24 262 263 0 0 1 31 20 787 0 24 263 7 0 --.0
125 .007 .0055 0 0 -1 -1 0 0 .005 16 24 752 0 ?30 10 264 20 0 0 1 17 30 0 265 19
4 266 47 25 24 0 29 +15 265 411 0 266 267 0 17 194 0 265 268 30 56 49 190 0 153
 +17 266 0 265 30 269 11 112 177 0 0 -17 29 0 27 25 36 47 55 253 0 0 -15 27 822
 0 36 18 0 17 36 0 27 29 28 53 23 10 0 0 -17 55 0 270 83 49 53 29 253 0 35 +15 2
70 521 0 235 16 271 17 83 0 270 81 55 69 35 228 0 272 +17 49 0 270 55 58 47 194
 190 0 30 -17 35 0 33 23 272 53 83 228 0 36 -15 33 82 0 35 273 274 17 272 0 33 3
5 75 69 249 247 0 275 -17 75 0 33 272 252 73 276 238 0 249 +17 249 0 277 72 275
 73 272 247 0 278 +17 275 0 277 249 279 69 81 231 0 0 -15 277 80 0 72 280 0 17 2
79 0 277 275 72 65 246 244 0 281 -17 81 0 270 235 83 65 275 231 0 279 +17 235 0
 270 257 81 50 281 233 0 282 +17 257 0 270 134 235 44 282 255 0 0 +17 281 0 283
 246 52 65 235 233 0 0 -17 282 0 284 285 286 50 257 255 0 0 -15 284 801 0 285 28
7 0 17 285 0 284 288 282 39 52 264 0 0 -17 286 0 284 282 288 44 38 262 0 257 -17
 288 0 284 286 285 32 43 258 0 0 -17 38 0 126 124 46 32 286 262 0 135 +17 46 0 1
26 38 114 44 134 165 0 286 +17 135 0 289 43 137 32 124 136 0 288 -15 289 620 0 1
35 290 0 17 43 0 289 118 135 39 288 258 0 291 +17 137 0 289 135 118 115 139 149
 0 127 -17 118 0 289 137 43 116 291 155 0 139 +17 139 0 138 141 127 116 137 149
 0 145 +17 145 0 283 291 122 116 141 146 0 0 -15 283 78 0 122 292 293 17 291 0 2
83 52 145 39 118 155 0 285 -17 122 0 283 145 68 120 148 236 0 141 -17 68 0 283 1
22 246 66 294 229 0 148 +17 148 0 147 78 142 66 122 236 0 295 +17 78 0 147 104 1
48 76 295 226 0 276 +17 295 0 296 294 276 66 78 226 0 0 -15 296 44 0 276 297 298
 17 294 0 296 278 295 70 68 229 0 0 -17 276 0 296 295 278 76 75 238 0 252 -17 27
8 0 296 276 294 73 72 240 0 0 -17 252 0 33 75 186 76 104 250 0 0 +17 186 0 33 25
2 34 102 299 178 0 0 +17 104 0 147 110 78 102 252 250 0 189 -17 110 0 147 153 10
4 94 189 187 0 268 -17 189 0 300 299 182 102 110 187 0 186 +15 300 399 0 299 301
 0 17 299 0 300 302 189 106 186 178 0 0 -17 182 0 300 189 302 94 269 180 0 0 +17
 302 0 300 182 299 105 192 183 0 269 -17 269 0 265 266 268 105 182 180 0 0 -17 2
68 0 265 269 194 94 153 175 0 182 -17 153 0 147 151 110 56 268 175 0 0 +17 192 0
 303 37 112 106 302 183 0 299 +15 303 403 0 37 304 0 17 37 0 303 31 192 26 34 17
2 0 28 -17 112 0 303 192 31 105 266 177 0 302 +17 31 0 303 112 37 11 28 260 0 26
6 +17 28 0 27 36 25 26 31 260 0 0 -17 34 0 33 186 23 106 37 172 0 192 +14 255 30
4 400 305 ?267 301 303 5 306 +0 0 267 301 22 81 1 305 1288 307 304 308 0 0 309 3
10 14 267 408 309 ?311 304 312 5 313 +0 0 311 304 22 14 301 396 314 ?304 315 300
 5 316 +0 0 304 315 22 50 255 306 425 0 304 316 317 0 +-.0175 0 .0055 1 0 0 0 0
 -1 13 22 29 0 0 0 0 0 0 9 16 14 16 145 318 ?297 0 270 5 319 +0 0 297 0 22 81 1
 318 1291 307 16 320 0 314 321 322 14 297 125 321 ?152 16 296 5 323 -0 0 152 16
 22 50 319 2 0 16 324 323 0 +0 .002 0 0 1 0 0 0 1 51 324 208 0 325 326 319 0 --.
008 .002 0 0 -1 0 .0015 0 0 -1 50 323 65 0 297 319 327 0 +0 0 0 0 1 0 0 0 1 50 3
27 90 0 292 323 328 0 +-.0325 .002 -.0075 0 0 1 1 0 0 14 292 79 329 ?325 280 283
 5 327 -0 0 325 280 22 51 328 91 0 280 327 330 0 -0 .002 0 0 -1 0 .0075 0 0 -1 1
4 280 81 331 ?292 273 277 5 328 -0 0 292 273 22 50 330 92 0 273 328 332 0 +-.032
5 .002 .0075 0 0 -1 -1 0 0 14 273 83 333 ?280 152 33 5 330 -0 0 280 152 22 50 33
2 93 0 152 330 19 0 +-.0325 .002 .0075 1 0 0 0 0 -1 14 152 85 334 ?273 297 147 5
 332 -0 0 273 297 22 51 19 812 0 287 332 6 0 +-.0125 .007 0 0 0 1 .005 1 0 0 14
 287 800 335 ?18 336 284 5 19 -0 0 18 336 22 81 1 335 1297 307 287 337 0 334 338
 339 14 18 821 338 ?0 287 27 5 6 -0 0 0 287 22 14 336 625 340 ?287 144 341 5 342
 +0 0 287 144 22 81 1 340 1299 307 336 343 0 338 344 345 14 144 621 344 ?336 290
 138 5 346 -0 0 336 290 22 15 341 628 0 347 336 348 51 342 638 0 336 0 349 0 --.
025 .0125 -.0055 0 0 -1 .0025 -1 0 0 50 349 637 0 130 342 350 0 +-.025 .0125 -.0
055 0 0 1 -1 0 0 14 130 601 351 ?290 311 126 5 349 +0 0 290 311 22 50 350 634 0
 290 349 346 0 +-.0175 0 -.0055 -1 0 0 0 0 1 14 290 617 352 ?144 130 289 5 350 -
0 0 144 130 22 51 346 633 0 144 350 353 0 --.025 .0125 -.0055 0 0 -1 .0075 -1 0
 0 51 353 429 0 311 346 313 0 +-.025 .0125 .0055 0 0 1 .0025 1 0 0 14 311 416 35
4 ?130 267 355 5 353 -0 0 130 267 22 50 313 428 0 267 353 316 0 +-.025 .0125 .00
55 0 0 -1 -1 0 0 51 316 426 0 301 313 306 0 +-.025 .0125 .0055 0 0 1 .0075 1 0 0
 81 1 354 1303 307 311 356 0 352 357 358 15 355 419 0 359 311 360 17 359 0 355 3
59 359 0 171 169 0 0 -15 360 420 0 174 311 0 17 174 0 360 174 174 0 361 168 0 0
 +17 361 0 274 361 361 0 174 168 0 0 -15 274 415 0 361 273 0 17 171 0 312 171 17
1 0 359 169 0 0 +15 312 410 0 171 267 265 80 255 1 307 362 363 9000 1 1 1 1 1 1
 1 1 0 FFFFTFTFFFFFFF1 81 1 356 917 364 311 0 354 365 366 367 81 1 352 1302 307
 290 368 0 351 354 369 81 1 357 1304 307 315 370 0 354 371 372 82 255 1 358 1129
513074 14 315 196 357 ?301 373 374 5 317 +0 0 301 373 22 81 1 370 913 364 315 0
 357 375 376 377 81 1 371 1305 307 373 375 0 357 378 379 82 1 372 -695861144 14
 373 192 371 ?315 380 381 5 382 +0 0 315 380 22 81 1 375 912 364 373 0 371 383 3
70 384 81 1 378 1306 307 380 383 0 371 385 386 82 1 379 -695599000 14 380 188 37
8 ?373 325 387 5 326 +0 0 373 325 22 81 1 383 911 364 380 0 378 388 375 389 81 1
 385 1307 307 325 388 0 378 0 390 82 1 386 -695336856 14 325 184 385 ?380 292 39
1 5 324 +0 0 380 292 22 81 1 388 910 364 325 0 385 392 383 393 82 1 390 -6950747
12 80 1 364 0 394 8001 0 0 0 0 3 5 0 0 0 FFFFTFTFFFFFFF2 81 1 392 909 364 292 0
 329 395 388 396 83 255 3 393 .792156862745098 .819607843137255 .929411764705882
 81 1 329 1293 307 292 392 0 321 331 397 81 1 395 908 364 280 0 331 398 392 399
 83 3 396 .792156862745098 .819607843137255 .929411764705882 81 1 331 1294 307 2
80 395 0 329 333 400 81 1 398 907 364 273 0 333 401 395 402 83 3 399 .7921568627
45098 .819607843137255 .929411764705882 81 1 333 1295 307 273 398 0 331 334 403
 81 1 401 906 364 152 0 334 404 398 405 83 3 402 .792156862745098 .8196078431372
55 .929411764705882 81 1 334 1296 307 152 401 0 333 335 406 81 1 404 905 364 297
 0 321 320 401 407 83 3 405 .792156862745098 .819607843137255 .929411764705882 8
1 1 321 1292 307 297 404 0 318 329 408 81 1 320 904 364 16 0 318 0 404 409 83 3
 407 .792156862745098 .819607843137255 .929411764705882 83 3 409 .79215686274509
8 .819607843137255 .929411764705882 82 1 408 -691339149 82 1 406 -706805645 82 1
 403 -707067787 82 1 400 -707329944 82 1 397 -707592075 79 255 15 394 SDL/TYSA_C
OLOUR15 391 187 0 64 325 0 17 64 0 391 410 225 62 208 195 0 218 -17 410 0 391 10
1 64 79 218 206 0 411 -17 225 0 391 64 101 91 412 223 0 208 +17 208 0 298 211 21
6 91 64 195 0 0 +17 218 0 374 413 96 62 410 206 0 216 +15 374 199 0 413 315 0 17
 413 0 374 61 218 84 216 199 0 214 -17 96 0 374 218 61 79 414 204 0 410 +17 216
 0 298 208 214 62 413 199 0 0 +15 298 123 0 208 297 0 17 214 0 298 216 211 84 41
5 212 0 0 +17 211 0 298 214 208 88 93 209 0 0 +17 415 0 381 416 86 88 214 212 0
 211 -15 381 195 0 415 373 0 17 416 0 381 203 415 97 90 221 0 417 -17 86 0 381 4
15 203 84 61 219 0 413 +17 203 0 381 86 416 59 417 201 0 414 +17 61 0 374 96 413
 59 86 219 0 203 -17 417 0 271 418 414 97 203 201 0 0 -17 414 0 271 417 411 59 9
6 204 0 0 -15 271 128 0 418 16 0 17 411 0 271 414 418 79 101 196 0 0 -17 418 0 2
71 411 417 87 99 198 0 0 -17 101 0 391 225 410 87 411 196 0 412 +17 412 0 387 99
 93 87 225 223 0 418 -15 387 191 0 93 380 0 17 99 0 387 90 412 97 418 198 0 416
 +17 93 0 387 412 90 91 211 209 0 225 -17 90 0 387 93 99 88 416 221 0 415 +83 3
 389 .792156862745098 .819607843137255 .929411764705882 50 326 209 0 380 382 324
 0 +-.008 .002 .0015 0 0 -1 -1 0 0 51 382 210 0 373 317 326 0 -0 .002 0 0 -1 0 .
0015 0 0 -1 50 317 211 0 315 306 382 0 +-.008 .002 -.0015 0 0 1 1 0 0 83 3 384 .
792156862745098 .819607843137255 .929411764705882 81 1 376 914 364 301 0 314 370
 308 419 83 3 377 .792156862745098 .819607843137255 .929411764705882 81 1 314 12
90 307 301 376 0 309 318 420 81 1 308 915 364 304 0 305 376 365 421 83 3 419 .79
2156862745098 .819607843137255 .929411764705882 81 1 365 916 364 267 0 309 308 3
56 422 83 3 421 .792156862745098 .819607843137255 .929411764705882 81 1 309 1289
 307 267 365 0 305 314 423 83 3 422 .792156862745098 .819607843137255 .929411764
705882 82 1 423 1117847669 82 1 420 1124401266 81 1 368 919 364 290 0 352 366 42
4 425 81 1 351 1301 307 130 366 0 344 352 426 82 1 369 1163985013 81 1 366 918 3
64 130 0 351 356 368 427 81 1 344 1300 307 144 424 0 340 351 428 82 1 426 117158
7189 81 1 424 920 364 144 0 344 368 343 429 82 1 428 1164247155 81 1 343 921 364
 336 0 340 424 337 430 83 3 429 .792156862745098 .819607843137255 .9294117647058
82 81 1 337 922 364 287 0 335 343 431 432 83 3 430 .792156862745098 .81960784313
7255 .929411764705882 81 1 431 923 364 18 0 338 337 0 433 83 3 432 .792156862745
098 .819607843137255 .929411764705882 81 1 338 1298 307 18 431 0 335 340 434 83
 3 433 .792156862745098 .819607843137255 .929411764705882 82 1 434 -1486946187 8
3 3 427 .792156862745098 .819607843137255 .929411764705882 83 3 425 .79215686274
5098 .819607843137255 .929411764705882 83 3 367 .792156862745098 .81960784313725
5 .929411764705882 79 14 363 SWEntUnchanged17 347 0 341 347 347 0 435 163 0 0 +1
5 348 629 0 436 336 0 17 436 0 348 436 436 0 437 159 0 0 -17 437 0 293 437 437 0
 436 159 0 0 +16 159 554 0 ?437 163 0 158 0 0 1 16 163 572 0 ?347 146 159 160 0
 0 1 31 160 656 0 163 0 158 0 +-.025 .0125 -.0055 0 0 1 1 0 0 .0025 15 293 608 0
 437 292 0 17 435 0 131 435 435 0 347 163 0 0 -15 131 604 0 435 130 0 82 1 345 1
169358963 82 1 339 -1488912267 82 1 322 -689504139 82 1 310 1124532341 17 72 0 2
77 279 249 70 278 240 0 246 +17 246 0 283 68 281 70 279 244 0 294 +17 52 0 283 2
81 291 50 285 264 0 235 +17 134 0 270 58 257 108 46 165 0 151 -17 58 0 270 49 13
4 56 151 154 0 194 +19 17 95 0 1 0 9 5 S0 74 4 CI16 index_map_offset0 0 1 dCCZ20
 15 8 0 0 385 431 438 439 440 441 13 2 0 0 0 0 0 0 0 0 0 0 0 0 81 2 438 991 442
 1 0 439 0 0 0 443 81 2 439 992 444 1 438 440 0 0 0 445 81 2 440 1058 446 1 439
 441 0 0 447 0 81 2 441 1244 448 1 440 13 0 0 0 0 81 1 13 1245 449 1 441 2 0 0 4
50 80 1 449 451 452 9000 1 1 1 1 1 1 1 1 0 FFTFFFFFFFFFFF1 82 1 450 249 79 10 45
2 BODY_MATCH80 2 448 453 454 9000 0 0 0 0 3 5 0 0 0 FFTFFFFFFFFFFF9 1 79 16 454
 BODY_RECIPE_200180 2 446 455 456 8004 0 0 0 0 3 5 0 0 0 FFTFFFFFFFFFFF2 3 83 1
 447 1 79 16 456 SDL/TYSA_DENSITY80 2 444 457 458 9000 0 0 0 0 3 5 0 0 0 FFTFFFF
FFFFFFF9 1 82 1 445 103 79 19 458 ENT_TIME_STAMP_200180 2 442 459 460 9000 0 0 0
 0 3 5 0 0 0 FFTFFFFFFFFFFF9 1 82 1 443 26 79 30 460 LAST_BODY_MODIFYING_FEATURE
_ID80 2 12 461 462 9000 0 0 0 0 3 5 0 0 0 FFTFFFFFFFFFFF9 1 82 1 14 101 79 12 46
2 ATOM_ID_20011 0 
